<?xml version="1.0" encoding="UTF-8" standalone="no"?>
<!DOCTYPE svg PUBLIC "-//W3C//DTD SVG 1.1//EN"
 "http://www.w3.org/Graphics/SVG/1.1/DTD/svg11.dtd">
<!-- Generated by graphviz version 13.1.2 (20250808.2320)
 -->
<!-- Title: G Pages: 1 -->
<svg width="877pt" height="206pt"
 viewBox="0.00 0.00 877.00 206.00" xmlns="http://www.w3.org/2000/svg" xmlns:xlink="http://www.w3.org/1999/xlink">
<g id="graph0" class="graph" transform="scale(1 1) rotate(0) translate(4 202)">
<title>G</title>
<polygon fill="white" stroke="none" points="-4,4 -4,-202 872.75,-202 872.75,4 -4,4"/>
<!-- aws_default_route_table.private_rt -->
<g id="node1" class="node">
<title>aws_default_route_table.private_rt</title>
<polygon fill="none" stroke="black" points="839.12,-193 608.62,-193 608.62,-157 839.12,-157 839.12,-193"/>
<text xml:space="preserve" text-anchor="middle" x="723.88" y="-170.32" font-family="sans-serif" font-size="14.00">aws_default_route_table.private_rt</text>
</g>
<!-- aws_nat_gateway.nat_gw -->
<g id="node4" class="node">
<title>aws_nat_gateway.nat_gw</title>
<polygon fill="none" stroke="black" points="543,-193 368.75,-193 368.75,-157 543,-157 543,-193"/>
<text xml:space="preserve" text-anchor="middle" x="455.88" y="-170.32" font-family="sans-serif" font-size="14.00">aws_nat_gateway.nat_gw</text>
</g>
<!-- aws_default_route_table.private_rt&#45;&gt;aws_nat_gateway.nat_gw -->
<g id="edge1" class="edge">
<title>aws_default_route_table.private_rt&#45;&gt;aws_nat_gateway.nat_gw</title>
<path fill="none" stroke="red" d="M608.14,-175C590.77,-175 572.98,-175 555.98,-175"/>
<polygon fill="red" stroke="red" points="556.05,-175 550.05,-179 544.05,-175 550.06,-171 556.05,-175"/>
</g>
<!-- aws_eip.nat_eip -->
<g id="node2" class="node">
<title>aws_eip.nat_eip</title>
<polygon fill="none" stroke="black" points="299,-198 184,-198 184,-162 299,-162 299,-198"/>
<text xml:space="preserve" text-anchor="middle" x="241.5" y="-175.32" font-family="sans-serif" font-size="14.00">aws_eip.nat_eip</text>
</g>
<!-- aws_internet_gateway.igw -->
<g id="node3" class="node">
<title>aws_internet_gateway.igw</title>
<polygon fill="none" stroke="black" points="330.5,-90 152.5,-90 152.5,-54 330.5,-54 330.5,-90"/>
<text xml:space="preserve" text-anchor="middle" x="241.5" y="-67.33" font-family="sans-serif" font-size="14.00">aws_internet_gateway.igw</text>
</g>
<!-- aws_vpc.vpc&#45;01 -->
<g id="node9" class="node">
<title>aws_vpc.vpc&#45;01</title>
<polygon fill="none" stroke="black" points="114.25,-90 0,-90 0,-54 114.25,-54 114.25,-90"/>
<text xml:space="preserve" text-anchor="middle" x="57.13" y="-67.33" font-family="sans-serif" font-size="14.00">aws_vpc.vpc&#45;01</text>
</g>
<!-- aws_internet_gateway.igw&#45;&gt;aws_vpc.vpc&#45;01 -->
<g id="edge2" class="edge">
<title>aws_internet_gateway.igw&#45;&gt;aws_vpc.vpc&#45;01</title>
<path fill="none" stroke="red" d="M152.25,-72C143.94,-72 135.59,-72 127.49,-72"/>
<polygon fill="red" stroke="red" points="127.47,-72 121.47,-76 115.47,-72 121.47,-68 127.47,-72"/>
</g>
<!-- aws_nat_gateway.nat_gw&#45;&gt;aws_eip.nat_eip -->
<g id="edge3" class="edge">
<title>aws_nat_gateway.nat_gw&#45;&gt;aws_eip.nat_eip</title>
<path fill="none" stroke="red" d="M368.49,-177.03C349.73,-177.48 330.12,-177.94 312.11,-178.36"/>
<polygon fill="red" stroke="red" points="312.21,-178.36 306.3,-182.5 300.21,-178.64 306.11,-174.5 312.21,-178.36"/>
</g>
<!-- aws_subnet.public_subnet -->
<g id="node8" class="node">
<title>aws_subnet.public_subnet</title>
<polygon fill="none" stroke="black" points="329.38,-144 153.62,-144 153.62,-108 329.38,-108 329.38,-144"/>
<text xml:space="preserve" text-anchor="middle" x="241.5" y="-121.33" font-family="sans-serif" font-size="14.00">aws_subnet.public_subnet</text>
</g>
<!-- aws_nat_gateway.nat_gw&#45;&gt;aws_subnet.public_subnet -->
<g id="edge4" class="edge">
<title>aws_nat_gateway.nat_gw&#45;&gt;aws_subnet.public_subnet</title>
<path fill="none" stroke="red" d="M374.89,-156.55C361.88,-153.54 348.31,-150.41 335.03,-147.35"/>
<polygon fill="red" stroke="red" points="334.99,-147.34 328.24,-149.89 323.29,-144.64 330.04,-142.09 334.99,-147.34"/>
</g>
<!-- aws_route_table.public_rt -->
<g id="node5" class="node">
<title>aws_route_table.public_rt</title>
<polygon fill="none" stroke="black" points="543,-92 368.75,-92 368.75,-56 543,-56 543,-92"/>
<text xml:space="preserve" text-anchor="middle" x="455.88" y="-69.33" font-family="sans-serif" font-size="14.00">aws_route_table.public_rt</text>
</g>
<!-- aws_route_table.public_rt&#45;&gt;aws_internet_gateway.igw -->
<g id="edge5" class="edge">
<title>aws_route_table.public_rt&#45;&gt;aws_internet_gateway.igw</title>
<path fill="none" stroke="red" d="M368.49,-73.19C360.35,-73.11 352.05,-73.03 343.79,-72.95"/>
<polygon fill="red" stroke="red" points="343.78,-72.95 337.74,-76.9 331.78,-72.84 337.81,-68.9 343.78,-72.95"/>
</g>
<!-- aws_route_table_association.public_rt_assoc -->
<g id="node6" class="node">
<title>aws_route_table_association.public_rt_assoc</title>
<polygon fill="none" stroke="black" points="868.75,-118 579,-118 579,-82 868.75,-82 868.75,-118"/>
<text xml:space="preserve" text-anchor="middle" x="723.88" y="-95.33" font-family="sans-serif" font-size="14.00">aws_route_table_association.public_rt_assoc</text>
</g>
<!-- aws_route_table_association.public_rt_assoc&#45;&gt;aws_route_table.public_rt -->
<g id="edge6" class="edge">
<title>aws_route_table_association.public_rt_assoc&#45;&gt;aws_route_table.public_rt</title>
<path fill="none" stroke="red" d="M578.59,-85.9C571.11,-85.17 563.67,-84.44 556.38,-83.73"/>
<polygon fill="red" stroke="red" points="556.28,-83.72 549.92,-87.11 544.34,-82.55 550.7,-79.15 556.28,-83.72"/>
</g>
<!-- aws_route_table_association.public_rt_assoc&#45;&gt;aws_subnet.public_subnet -->
<g id="edge7" class="edge">
<title>aws_route_table_association.public_rt_assoc&#45;&gt;aws_subnet.public_subnet</title>
<path fill="none" stroke="red" d="M578.75,-107.8C502.55,-111.93 410.9,-116.89 342.55,-120.59"/>
<polygon fill="red" stroke="red" points="342.51,-120.59 336.74,-124.91 330.53,-121.24 336.3,-116.92 342.51,-120.59"/>
</g>
<!-- aws_subnet.private_subnet -->
<g id="node7" class="node">
<title>aws_subnet.private_subnet</title>
<polygon fill="none" stroke="black" points="332.75,-36 150.25,-36 150.25,0 332.75,0 332.75,-36"/>
<text xml:space="preserve" text-anchor="middle" x="241.5" y="-13.32" font-family="sans-serif" font-size="14.00">aws_subnet.private_subnet</text>
</g>
<!-- aws_subnet.private_subnet&#45;&gt;aws_vpc.vpc&#45;01 -->
<g id="edge8" class="edge">
<title>aws_subnet.private_subnet&#45;&gt;aws_vpc.vpc&#45;01</title>
<path fill="none" stroke="red" d="M178.25,-36.43C161.64,-41.35 143.6,-46.69 126.68,-51.7"/>
<polygon fill="red" stroke="red" points="126.96,-51.62 122.34,-57.16 115.45,-55.03 120.07,-49.49 126.96,-51.62"/>
</g>
<!-- aws_subnet.public_subnet&#45;&gt;aws_vpc.vpc&#45;01 -->
<g id="edge9" class="edge">
<title>aws_subnet.public_subnet&#45;&gt;aws_vpc.vpc&#45;01</title>
<path fill="none" stroke="red" d="M178.25,-107.57C161.64,-102.65 143.6,-97.31 126.68,-92.3"/>
<polygon fill="red" stroke="red" points="126.96,-92.38 120.07,-94.51 115.45,-88.97 122.34,-86.84 126.96,-92.38"/>
</g>
</g>
</svg>
